<mxfile host="app.diagrams.net" modified="2023-09-14T05:42:51.659Z" agent="Mozilla/5.0 (Windows NT 10.0; Win64; x64) AppleWebKit/537.36 (KHTML, like Gecko) Chrome/114.0.0.0 YaBrowser/23.7.5.704 Yowser/2.5 Safari/537.36" etag="GWEHtpipxp1ehMEKmbKd" version="21.7.4" type="github">
  <diagram name="Страница — 1" id="YEoDVJgcJGpcp84gS23g">
    <mxGraphModel dx="1386" dy="759" grid="1" gridSize="10" guides="1" tooltips="1" connect="1" arrows="1" fold="1" page="1" pageScale="1" pageWidth="827" pageHeight="1169" math="0" shadow="0">
      <root>
        <mxCell id="0" />
        <mxCell id="1" parent="0" />
        <mxCell id="K9i98fjTfGAD4Rw464ac-5" style="edgeStyle=orthogonalEdgeStyle;rounded=0;orthogonalLoop=1;jettySize=auto;html=1;exitX=0.5;exitY=1;exitDx=0;exitDy=0;entryX=0.5;entryY=0;entryDx=0;entryDy=0;" edge="1" parent="1" source="K9i98fjTfGAD4Rw464ac-1" target="K9i98fjTfGAD4Rw464ac-2">
          <mxGeometry relative="1" as="geometry" />
        </mxCell>
        <mxCell id="K9i98fjTfGAD4Rw464ac-1" value="Start" style="ellipse;whiteSpace=wrap;html=1;" vertex="1" parent="1">
          <mxGeometry x="340" y="10" width="120" height="80" as="geometry" />
        </mxCell>
        <mxCell id="K9i98fjTfGAD4Rw464ac-6" style="edgeStyle=orthogonalEdgeStyle;rounded=0;orthogonalLoop=1;jettySize=auto;html=1;exitX=0.5;exitY=1;exitDx=0;exitDy=0;entryX=0.5;entryY=0;entryDx=0;entryDy=0;" edge="1" parent="1" source="K9i98fjTfGAD4Rw464ac-2" target="K9i98fjTfGAD4Rw464ac-3">
          <mxGeometry relative="1" as="geometry" />
        </mxCell>
        <mxCell id="K9i98fjTfGAD4Rw464ac-2" value="OldMassive - []&lt;br&gt;NewMassive = []&lt;br&gt;index = 0&lt;br&gt;size = OldMassive.lenght" style="shape=parallelogram;perimeter=parallelogramPerimeter;whiteSpace=wrap;html=1;fixedSize=1;" vertex="1" parent="1">
          <mxGeometry x="280" y="110" width="240" height="110" as="geometry" />
        </mxCell>
        <mxCell id="K9i98fjTfGAD4Rw464ac-7" style="edgeStyle=orthogonalEdgeStyle;rounded=0;orthogonalLoop=1;jettySize=auto;html=1;exitX=0.5;exitY=1;exitDx=0;exitDy=0;entryX=0.5;entryY=0;entryDx=0;entryDy=0;" edge="1" parent="1" source="K9i98fjTfGAD4Rw464ac-3" target="K9i98fjTfGAD4Rw464ac-4">
          <mxGeometry relative="1" as="geometry" />
        </mxCell>
        <mxCell id="K9i98fjTfGAD4Rw464ac-8" value="Yes" style="edgeLabel;html=1;align=center;verticalAlign=middle;resizable=0;points=[];" vertex="1" connectable="0" parent="K9i98fjTfGAD4Rw464ac-7">
          <mxGeometry x="0.04" y="1" relative="1" as="geometry">
            <mxPoint as="offset" />
          </mxGeometry>
        </mxCell>
        <mxCell id="K9i98fjTfGAD4Rw464ac-13" style="edgeStyle=orthogonalEdgeStyle;rounded=0;orthogonalLoop=1;jettySize=auto;html=1;exitX=1;exitY=0.5;exitDx=0;exitDy=0;entryX=0;entryY=0.4;entryDx=0;entryDy=0;entryPerimeter=0;" edge="1" parent="1" source="K9i98fjTfGAD4Rw464ac-3" target="K9i98fjTfGAD4Rw464ac-11">
          <mxGeometry relative="1" as="geometry" />
        </mxCell>
        <mxCell id="K9i98fjTfGAD4Rw464ac-15" value="No" style="edgeLabel;html=1;align=center;verticalAlign=middle;resizable=0;points=[];" vertex="1" connectable="0" parent="K9i98fjTfGAD4Rw464ac-13">
          <mxGeometry x="-0.4154" y="-3" relative="1" as="geometry">
            <mxPoint as="offset" />
          </mxGeometry>
        </mxCell>
        <mxCell id="K9i98fjTfGAD4Rw464ac-3" value="index &amp;lt; OldMassive.lenght" style="rhombus;whiteSpace=wrap;html=1;" vertex="1" parent="1">
          <mxGeometry x="315" y="280" width="170" height="170" as="geometry" />
        </mxCell>
        <mxCell id="K9i98fjTfGAD4Rw464ac-9" style="edgeStyle=orthogonalEdgeStyle;rounded=0;orthogonalLoop=1;jettySize=auto;html=1;exitX=0;exitY=0.5;exitDx=0;exitDy=0;entryX=0;entryY=0.5;entryDx=0;entryDy=0;" edge="1" parent="1" source="K9i98fjTfGAD4Rw464ac-4" target="K9i98fjTfGAD4Rw464ac-3">
          <mxGeometry relative="1" as="geometry" />
        </mxCell>
        <mxCell id="K9i98fjTfGAD4Rw464ac-4" value="NewMassive[index] = OldMassive[size-1]&lt;br&gt;size--&lt;br&gt;index++" style="rounded=0;whiteSpace=wrap;html=1;" vertex="1" parent="1">
          <mxGeometry x="315" y="500" width="170" height="90" as="geometry" />
        </mxCell>
        <mxCell id="K9i98fjTfGAD4Rw464ac-14" style="edgeStyle=orthogonalEdgeStyle;rounded=0;orthogonalLoop=1;jettySize=auto;html=1;exitX=1;exitY=0.5;exitDx=0;exitDy=0;entryX=0;entryY=0.6;entryDx=0;entryDy=0;entryPerimeter=0;" edge="1" parent="1" source="K9i98fjTfGAD4Rw464ac-11" target="K9i98fjTfGAD4Rw464ac-12">
          <mxGeometry relative="1" as="geometry" />
        </mxCell>
        <mxCell id="K9i98fjTfGAD4Rw464ac-11" value="print(OldMassive)" style="shape=document;whiteSpace=wrap;html=1;boundedLbl=1;" vertex="1" parent="1">
          <mxGeometry x="550" y="333" width="110" height="80" as="geometry" />
        </mxCell>
        <mxCell id="K9i98fjTfGAD4Rw464ac-12" value="End" style="ellipse;whiteSpace=wrap;html=1;" vertex="1" parent="1">
          <mxGeometry x="700" y="325" width="120" height="80" as="geometry" />
        </mxCell>
      </root>
    </mxGraphModel>
  </diagram>
</mxfile>
